<svg version="1.1" id="Layer_1" xmlns="http://www.w3.org/2000/svg" xmlns:xlink="http://www.w3.org/1999/xlink" x="0px" y="0px"
	 width="100%" viewBox="0 0 262 432" enable-background="new 0 0 262 432" xml:space="preserve">
<path fill="#FEFEFE" opacity="1.000000" stroke="none" 
	d="
M105.000000,433.000000 
	C70.000008,433.000000 35.500011,433.000000 1.000014,433.000000 
	C1.000009,289.000031 1.000009,145.000061 1.000005,1.000072 
	C88.333282,1.000048 175.666565,1.000048 262.999878,1.000024 
	C262.999939,144.999924 262.999939,288.999847 262.999969,432.999878 
	C210.500000,433.000000 158.000000,433.000000 105.000000,433.000000 
M96.339088,371.171906 
	C116.644257,383.043335 138.563263,386.774567 161.688644,383.746826 
	C189.996338,380.040588 212.347824,366.133209 228.841003,343.033051 
	C244.874039,320.577423 252.867065,295.287323 252.942978,267.741058 
	C253.123428,202.264252 253.002213,136.786621 252.987549,71.309319 
	C252.987259,70.027527 252.798965,68.745781 252.692322,67.386726 
	C220.668747,67.386726 188.965378,67.386726 157.226746,67.386726 
	C157.226746,84.017456 157.226746,100.258720 157.226746,117.091125 
	C173.278870,117.091125 189.011108,117.091125 204.970917,117.091125 
	C205.068802,119.138344 205.208618,120.605232 205.198914,122.071144 
	C204.880234,170.207230 204.429901,218.342865 204.288528,266.479431 
	C204.246689,280.731598 201.598801,294.168427 195.177780,306.934265 
	C178.565048,339.962555 132.239349,347.535248 105.892113,321.682068 
	C99.575699,315.484100 96.524742,307.625732 92.726700,300.100677 
	C91.195618,297.067139 89.550568,295.696350 85.953156,295.798187 
	C75.964607,296.081085 65.962807,295.896332 55.966248,295.896332 
	C52.705112,295.896332 49.443977,295.896332 44.941505,295.896332 
	C50.407467,329.616760 67.815292,353.721863 96.339088,371.171906 
M155.726349,138.959503 
	C154.604721,138.318924 153.440384,137.071014 152.369080,137.146317 
	C148.415482,137.424286 144.394684,137.761581 140.573807,138.751007 
	C110.733826,146.478271 87.361702,163.796982 70.264694,188.965607 
	C55.529137,210.657928 45.484715,234.423538 45.564037,261.606689 
	C60.715233,261.606689 75.574219,261.606689 90.141632,261.606689 
	C91.227470,256.309235 91.793762,251.313507 93.289345,246.613510 
	C102.786522,216.767746 121.083488,195.076721 151.505569,184.991425 
	C155.053101,183.815369 155.885590,181.797653 155.838531,178.341629 
	C155.663940,165.520035 155.764984,152.694717 155.726349,138.959503 
M80.832603,120.797630 
	C80.081093,119.503548 79.330910,118.208694 78.577888,116.915497 
	C67.643806,98.138031 39.700912,90.484901 21.022764,107.996132 
	C10.073322,118.261505 6.548811,130.798431 7.927924,145.498810 
	C10.415167,172.011078 38.388603,188.792404 63.104034,176.808090 
	C81.746284,167.768616 89.927391,137.824478 80.832603,120.797630 
z"/>
<path fill="#A1A4A6" opacity="1.000000" stroke="none" 
	d="
M96.012787,371.007355 
	C67.815292,353.721863 50.407467,329.616760 44.941505,295.896332 
	C49.443977,295.896332 52.705112,295.896332 55.966248,295.896332 
	C65.962807,295.896332 75.964607,296.081085 85.953156,295.798187 
	C89.550568,295.696350 91.195618,297.067139 92.726700,300.100677 
	C96.524742,307.625732 99.575699,315.484100 105.892113,321.682068 
	C132.239349,347.535248 178.565048,339.962555 195.177780,306.934265 
	C201.598801,294.168427 204.246689,280.731598 204.288528,266.479431 
	C204.429901,218.342865 204.880234,170.207230 205.198914,122.071144 
	C205.208618,120.605232 205.068802,119.138344 204.970917,117.091125 
	C189.011108,117.091125 173.278870,117.091125 157.226746,117.091125 
	C157.226746,100.258720 157.226746,84.017456 157.226746,67.386726 
	C188.965378,67.386726 220.668747,67.386726 252.692322,67.386726 
	C252.798965,68.745781 252.987259,70.027527 252.987549,71.309319 
	C253.002213,136.786621 253.123428,202.264252 252.942978,267.741058 
	C252.867065,295.287323 244.874039,320.577423 228.841003,343.033051 
	C212.347824,366.133209 189.996338,380.040588 161.688644,383.746826 
	C138.563263,386.774567 116.644257,383.043335 96.012787,371.007355 
z"/>
<path fill="#A2A5A7" opacity="1.000000" stroke="none" 
	d="
M155.744415,139.415146 
	C155.764984,152.694717 155.663940,165.520035 155.838531,178.341629 
	C155.885590,181.797653 155.053101,183.815369 151.505569,184.991425 
	C121.083488,195.076721 102.786522,216.767746 93.289345,246.613510 
	C91.793762,251.313507 91.227470,256.309235 90.141632,261.606689 
	C75.574219,261.606689 60.715233,261.606689 45.564037,261.606689 
	C45.484715,234.423538 55.529137,210.657928 70.264694,188.965607 
	C87.361702,163.796982 110.733826,146.478271 140.573807,138.751007 
	C144.394684,137.761581 148.415482,137.424286 152.369080,137.146317 
	C153.440384,137.071014 154.604721,138.318924 155.744415,139.415146 
z"/>
<path fill="#A2A5A7" opacity="1.000000" stroke="none" 
	d="
M80.983246,121.144470 
	C89.927391,137.824478 81.746284,167.768616 63.104034,176.808090 
	C38.388603,188.792404 10.415167,172.011078 7.927924,145.498810 
	C6.548811,130.798431 10.073322,118.261505 21.022764,107.996132 
	C39.700912,90.484901 67.643806,98.138031 78.577888,116.915497 
	C79.330910,118.208694 80.081093,119.503548 80.983246,121.144470 
z"/>
</svg>