<?xml version="1.0" encoding="UTF-8"?>
<svg version="1.1" xmlns="http://www.w3.org/2000/svg" width="1365" height="732">
<path d="M0 0 C450.45 0 900.9 0 1365 0 C1365 241.56 1365 483.12 1365 732 C914.55 732 464.1 732 0 732 C0 490.44 0 248.88 0 0 Z " fill="#FEFEFE" transform="translate(0,0)"/>
<path d="M0 0 C25.41 0 50.82 0 77 0 C77.08060607 40.40155275 77.08060607 40.40155275 77.09765625 57.41796875 C77.10949288 69.13657393 77.12335754 80.85515022 77.15087891 92.57373047 C77.17091878 101.11082137 77.18374138 109.64788867 77.18817699 118.18500245 C77.19076656 122.69827392 77.19678 127.21147794 77.21146011 131.72472763 C77.22521222 135.9879181 77.22918775 140.25101446 77.22621536 144.51422501 C77.22675776 146.06439987 77.23062881 147.61457846 77.23841095 149.16473389 C77.27739707 157.34389017 76.99721695 165.40355974 76.13034058 173.54129028 C76.05536791 174.26319137 75.98039524 174.98509245 75.90315068 175.72886932 C74.53510332 187.38177526 70.35516673 198.61282315 65 209 C64.26523437 210.44439453 64.26523437 210.44439453 63.515625 211.91796875 C59.07547608 220.08995712 53.51584545 226.46513018 47 233 C46.35417969 233.66902344 45.70835937 234.33804688 45.04296875 235.02734375 C30.28849609 249.20320963 8.37495786 254.50952955 -11.4453125 254.21484375 C-34.03570207 253.44067331 -53.66119945 243.09098855 -69.078125 226.8046875 C-78.50831039 215.85230683 -89 197.94317028 -89 183 C-77.12 183 -65.24 183 -53 183 C-50.36 188.28 -47.72 193.56 -45 199 C-38.1852542 207.43180413 -28.1836735 213.97444524 -17.3125 215.79296875 C-3.27344302 217.04984378 8.87509999 214.58358607 20.0859375 205.6953125 C31.45366572 195.62675322 35.83558063 182.83493865 38 168 C38.09415524 166.14133517 38.1454217 164.28010204 38.15821838 162.4190979 C38.1680072 161.3338382 38.17779602 160.24857849 38.18788147 159.13043213 C38.19363693 157.95510925 38.1993924 156.77978638 38.20532227 155.56884766 C38.21522186 154.31951447 38.22512146 153.07018127 38.23532104 151.7829895 C38.26143425 148.37023569 38.28332682 144.95750434 38.30332303 141.54471254 C38.32525351 137.97325458 38.35260751 134.40183819 38.37937927 130.83041382 C38.42921098 124.07326987 38.47418496 117.31610273 38.51740164 110.55891359 C38.56685561 102.86360927 38.62174337 95.16834669 38.67708123 87.47308278 C38.79075502 71.64875901 38.89690839 55.82439679 39 40 C26.13 40 13.26 40 0 40 C0 26.8 0 13.6 0 0 Z " fill="#A1A4A6" transform="translate(419,248)"/>
<path d="M0 0 C69.91447368 0 69.91447368 0 85.390625 15.375 C91.19654231 21.98836276 94.3373112 28.66974065 97 37 C97.35191406 37.97324219 97.70382812 38.94648438 98.06640625 39.94921875 C102.62045816 54.83086956 101.82161032 75.24235871 97 90 C96.67128906 91.01578125 96.34257813 92.0315625 96.00390625 93.078125 C91.67945865 104.74964447 84.25847217 115.27146938 73 121 C49.28868233 130.96094831 26.91467422 127 0 127 C0 85.09 0 43.18 0 0 Z " fill="#1C5D6B" transform="translate(718,299)"/>
<path d="M0 0 C9.57 0 19.14 0 29 0 C30.3523007 4.05690211 31.39080605 7.51844043 32.15625 11.64453125 C32.36934814 12.77358887 32.58244629 13.90264648 32.80200195 15.06591797 C33.03234131 16.30229004 33.26268066 17.53866211 33.5 18.8125 C34.02074099 21.56196746 34.54674394 24.31041081 35.07421875 27.05859375 C35.21852829 27.81074158 35.36283783 28.5628894 35.51152039 29.33782959 C37.48492433 39.57581048 39.55370032 49.79474482 41.62988281 60.01229858 C42.08564281 62.25745854 42.53990286 64.50292349 42.99267578 66.74868774 C43.63323461 69.92439169 44.2787941 73.09903782 44.92578125 76.2734375 C45.2176104 77.72599693 45.2176104 77.72599693 45.51533508 79.207901 C45.78678596 80.5307737 45.78678596 80.5307737 46.0637207 81.88037109 C46.22105179 82.65512787 46.37838287 83.42988464 46.54048157 84.2281189 C46.8434433 86.01242846 46.8434433 86.01242846 48 87 C49.04225993 82.54180519 50.08381407 78.08344574 51.125 73.625 C51.28306122 72.94829254 51.44112244 72.27158508 51.60397339 71.57437134 C53.52737997 63.33790964 55.4409386 55.0993489 57.33447266 46.85595703 C59.60397982 36.97880612 61.90223913 27.10886567 64.25 17.25 C64.4962915 16.20803467 64.74258301 15.16606934 64.99633789 14.0925293 C65.22957764 13.11840088 65.46281738 12.14427246 65.703125 11.140625 C65.90583008 10.29016602 66.10853516 9.43970703 66.31738281 8.56347656 C67.0870947 5.67292763 68.05407561 2.83777317 69 0 C77.58 0 86.16 0 95 0 C98.38627234 13.28460687 101.48535236 26.62671932 104.54052734 39.9909668 C105.03304304 42.14447992 105.52621856 44.29784118 106.01953125 46.45117188 C107.09707771 51.15478244 108.17381198 55.85857844 109.25 60.5625 C109.42253296 61.31657135 109.59506592 62.0706427 109.77282715 62.8475647 C111.53690019 70.56027818 113.29654516 78.27361554 115 86 C115.33 86 115.66 86 116 86 C116.1952124 84.98317139 116.3904248 83.96634277 116.59155273 82.91870117 C120.56201395 62.2696867 124.64047476 41.64623811 128.9375 21.0625 C129.13431366 20.11523041 129.33112732 19.16796082 129.53390503 18.19198608 C130.0910173 15.51402716 130.65214534 12.83694628 131.21484375 10.16015625 C131.3811731 9.35996063 131.54750244 8.55976501 131.71887207 7.73532104 C132.88464597 2.23070807 132.88464597 2.23070807 134 0 C143.24 0 152.48 0 162 0 C159.15713446 12.99695791 156.11369945 25.92864405 152.9375 38.84765625 C152.45936378 40.79897988 151.98142198 42.75035116 151.50366211 44.70176697 C150.25745839 49.79012682 149.00910958 54.87795764 147.76013184 59.96563721 C145.76179603 68.10708256 143.76650074 76.24927309 141.77175903 84.39159966 C141.08357583 87.1991734 140.39428731 90.00647389 139.70483398 92.81373596 C139.27311877 94.57378377 138.84155575 96.33386892 138.41015625 98.09399414 C138.20484787 98.9312053 137.99953949 99.76841646 137.78800964 100.63099766 C136.78188305 104.74796964 135.79220446 108.86798465 134.83154297 112.99581909 C134.64796738 113.78456389 134.46439178 114.5733087 134.2752533 115.38595486 C133.93176232 116.86837772 133.59061009 118.35134516 133.25221252 119.834939 C132.10830113 124.78339774 132.10830113 124.78339774 131 127 C121.1 127 111.2 127 101 127 C95.82680236 107.96263268 91.01703446 88.82665765 86.71435547 69.57348633 C84.94672955 61.68001994 83.00927838 53.8350632 81 46 C80.86948242 46.58789307 80.73896484 47.17578613 80.60449219 47.78149414 C76.28346577 67.18260007 76.28346577 67.18260007 74.125 75 C71.34180634 85.15581688 69.05660926 95.43767525 66.68359375 105.6953125 C66.40370605 106.90477539 66.12381836 108.11423828 65.83544922 109.36035156 C65.26749619 111.83464838 64.70688826 114.31064026 64.15283203 116.78808594 C63.88712402 117.96918945 63.62141602 119.15029297 63.34765625 120.3671875 C63.11183838 121.4279248 62.87602051 122.48866211 62.63305664 123.58154297 C62 126 62 126 61 127 C58.78144736 127.08783542 56.56011504 127.10694609 54.33984375 127.09765625 C53.34314415 127.09553383 53.34314415 127.09553383 52.3263092 127.09336853 C50.19666101 127.08775518 48.06711661 127.07520054 45.9375 127.0625 C44.49674631 127.05748671 43.05599097 127.05292351 41.61523438 127.04882812 C38.07678898 127.03778145 34.53840461 127.02050792 31 127 C30.74928993 125.97836761 30.74928993 125.97836761 30.49351501 124.93609619 C28.49014019 116.77368288 26.48486146 108.61173825 24.47836304 100.45009232 C24.11905045 98.98850072 23.75977689 97.52689953 23.40054321 96.06528854 C19.16522711 78.83358373 14.91307606 61.60637058 10.59765625 44.39453125 C10.4228517 43.69706409 10.24804714 42.99959694 10.06794548 42.28099442 C8.54782134 36.21617123 7.02694255 30.1515407 5.49874878 24.08874512 C4.57029292 20.40466296 3.64438956 16.71994681 2.71875 13.03515625 C2.44140518 11.93927689 2.16406036 10.84339752 1.87831116 9.71430969 C1.62907394 8.72069931 1.37983673 7.72708893 1.12304688 6.70336914 C0.90483276 5.83797012 0.68661865 4.97257111 0.46179199 4.08094788 C0 2 0 2 0 0 Z " fill="#1C5D6B" transform="translate(820,299)"/>
<path d="M0 0 C11.22 0 22.44 0 34 0 C38.49420338 12.35905929 38.49420338 12.35905929 39.82421875 16.9609375 C40.27692139 18.51167969 40.27692139 18.51167969 40.73876953 20.09375 C41.05185059 21.1765625 41.36493164 22.259375 41.6875 23.375 C46.9849982 41.47163675 52.60036057 59.46790742 58.3125 77.4375 C60.25129919 83.53905295 62.06323395 89.66234437 63.7890625 95.828125 C65.85161919 103.04895187 68.12951534 110.20854569 70.35888672 117.37915039 C70.69936035 118.47735107 71.03983398 119.57555176 71.390625 120.70703125 C71.70032227 121.7019458 72.01001953 122.69686035 72.32910156 123.72192383 C73 126 73 126 73 127 C63.43 127 53.86 127 44 127 C39.46987952 114.54216867 39.46987952 114.54216867 38.25 109.5 C38.00765625 108.5203125 37.7653125 107.540625 37.515625 106.53125 C37 104 37 104 37 101 C24.13 101.33 11.26 101.66 -2 102 C-5.465 114.375 -5.465 114.375 -9 127 C-18.24 127 -27.48 127 -37 127 C-36.2890294 120.6012646 -35.44374586 115.49813476 -33.4375 109.5625 C-32.8907164 107.88841578 -32.34521419 106.21391266 -31.80078125 104.5390625 C-31.50896973 103.64735352 -31.2171582 102.75564453 -30.91650391 101.83691406 C-29.26374369 96.72101803 -27.69854303 91.57820133 -26.125 86.4375 C-25.43897265 84.20046852 -24.75277304 81.96348986 -24.06640625 79.7265625 C-23.72367676 78.60926758 -23.38094727 77.49197266 -23.02783203 76.34082031 C-22.03330359 73.10824853 -21.0316367 69.87798743 -20.02734375 66.6484375 C-15.94834062 53.50858981 -12.02257204 40.33237326 -8.23266602 27.10668945 C-5.62102087 18.02052926 -2.8220832 9.03066623 0 0 Z " fill="#1C5E6C" transform="translate(631,299)"/>
<path d="M0 0 C11.22 0 22.44 0 34 0 C44.62683109 32.74212823 44.62683109 32.74212823 49.31005859 48.65966797 C50.54838802 52.86017251 51.80523339 57.05513134 53.0625 61.25 C53.44136353 62.51408691 53.44136353 62.51408691 53.82788086 63.80371094 C55.67857693 69.96346343 57.58004253 76.10608309 59.5078125 82.2421875 C61.37562982 88.18865324 63.22592607 94.14057787 65.07528687 100.09280396 C65.47943886 101.39309719 65.88391233 102.69329055 66.28872681 103.99337769 C66.86382704 105.84039776 67.43778751 107.68777259 68.01171875 109.53515625 C68.34647217 110.611604 68.68122559 111.68805176 69.02612305 112.79711914 C69.34750244 113.85406982 69.66888184 114.91102051 70 116 C70.3710083 117.2058374 70.7420166 118.4116748 71.12426758 119.65405273 C72 123 72 123 72 127 C62.43 127 52.86 127 43 127 C41.845 123.08125 40.69 119.1625 39.5 115.125 C38.95182617 113.27285889 38.95182617 113.27285889 38.39257812 111.38330078 C38.10833984 110.41376465 37.82410156 109.44422852 37.53125 108.4453125 C37.23798828 107.45031738 36.94472656 106.45532227 36.64257812 105.43017578 C36 103 36 103 36 101 C23.13 101 10.26 101 -3 101 C-4.32 106.28 -5.64 111.56 -7 117 C-7.99 120.3 -8.98 123.6 -10 127 C-19.24 127 -28.48 127 -38 127 C-31.10324159 101.98234695 -31.10324159 101.98234695 -27.16796875 90.55859375 C-25.87224432 86.61075109 -24.7677814 82.63582728 -23.6875 78.625 C-21.7258345 71.36691634 -19.50733734 64.21375253 -17.1875 57.0625 C-13.2090275 44.78688057 -9.51629845 32.43680366 -5.89306641 20.05224609 C-4.83905114 16.44992272 -3.77873744 12.84947717 -2.7175293 9.24926758 C-1.80984403 6.16672023 -0.90518394 3.08328278 0 0 Z " fill="#1C5E6C" transform="translate(1014,299)"/>
<path d="M0 0 C9.57 0 19.14 0 29 0 C29.04530404 14.88272607 29.08208015 29.76541636 29.10362434 44.64819527 C29.11389757 51.55992238 29.12788139 58.47160332 29.15087891 65.38330078 C29.17308954 72.06174219 29.18459134 78.74012589 29.18975449 85.4186058 C29.1934309 87.95809557 29.20060969 90.49758291 29.21146011 93.03705215 C29.39469251 137.72557133 29.39469251 137.72557133 14.15625 153.96484375 C5.25284559 162.32061813 -3.98427039 164.17628139 -15.8125 164.0625 C-18.844375 164.041875 -21.87625 164.02125 -25 164 C-25 156.74 -25 149.48 -25 142 C-23.14375 141.896875 -21.2875 141.79375 -19.375 141.6875 C-14.61325042 141.26734562 -10.91907454 140.9393059 -7 138 C-0.68117003 129.39937032 -0.70148453 119.06830082 -0.68115234 108.75732422 C-0.67110672 107.57568192 -0.6610611 106.39403961 -0.65071106 105.17658997 C-0.62002188 101.30262706 -0.60288353 97.4287328 -0.5859375 93.5546875 C-0.56828554 90.85611519 -0.54773457 88.15756701 -0.5272522 85.45901489 C-0.48065187 79.10221483 -0.4438177 72.74539804 -0.41057932 66.38851559 C-0.37222461 59.14532024 -0.3228499 51.90221275 -0.27259517 44.65909171 C-0.16955448 29.77278704 -0.08165866 14.8864402 0 0 Z " fill="#1B5D6B" transform="translate(551,299)"/>
<path d="M0 0 C0 12.21 0 24.42 0 37 C-4.95 38.98 -9.9 40.96 -15 43 C-33.321803 53.4117169 -44.29613763 69.44268444 -50.38671875 89.34765625 C-51.1957557 92.84661223 -51.55455754 96.43646036 -52 100 C-63.88 100 -75.76 100 -88 100 C-88 92.71622114 -87.72342189 87.3845087 -85.8125 80.625 C-85.58618896 79.79991943 -85.35987793 78.97483887 -85.12670898 78.12475586 C-83.25753534 71.50592587 -80.94329803 65.2214623 -78 59 C-77.54882812 58.00742187 -77.09765625 57.01484375 -76.6328125 55.9921875 C-65.53382214 32.53432138 -45.32047631 13.22274473 -21 4 C-13.69275723 1.54817487 -7.78050374 0 0 0 Z " fill="#A1A4A6" transform="translate(418,304)"/>
<path d="M0 0 C6.23662388 5.00177235 10.82328285 11.71225515 12.875 19.4375 C14.11938101 30.99059526 12.30223673 40.92318482 5.25 50.3125 C-0.88559691 56.81463906 -9.46970657 60.43477847 -18.3125 60.75 C-27.06460533 60.59034302 -33.89310984 56.63498557 -40.14453125 50.7265625 C-47.24164971 42.5235814 -48.60820451 33.71346024 -48.40234375 23.203125 C-48.03178419 18.17186557 -46.7983809 14.66827102 -44.125 10.4375 C-43.70089844 9.74140625 -43.27679688 9.0453125 -42.83984375 8.328125 C-38.48627573 1.87659802 -32.82812328 -2.10770157 -25.625 -4.9375 C-16.16547789 -6.62670038 -8.05099787 -5.47591956 0 0 Z " fill="#A1A4A6" transform="translate(348.125,278.5625)"/>
<path d="M0 0 C25.69123932 0 25.69123932 0 35.3125 9.078125 C37.95742964 12.09040598 39.64481436 15.2430497 41 19 C41.53560547 20.47533203 41.53560547 20.47533203 42.08203125 21.98046875 C43.56143632 27.32197457 43.3287829 32.81213666 43.3125 38.3125 C43.32861328 39.38951172 43.34472656 40.46652344 43.36132812 41.57617188 C43.36805368 52.68006856 40.97345719 62.24467668 33.5078125 70.6875 C23.83836205 79.94056263 13.25871627 79 0 79 C0 52.93 0 26.86 0 0 Z " fill="#FBFCFC" transform="translate(746,324)"/>
<path d="M0 0 C1.44242535 2.69674117 2.41186923 5.19431981 3.11328125 8.16796875 C3.30704346 8.97097412 3.50080566 9.77397949 3.70043945 10.60131836 C4.00340942 11.88147827 4.00340942 11.88147827 4.3125 13.1875 C6.1316613 20.71537253 8.13532401 28.14671038 10.47583008 35.5300293 C11.64148379 39.31054052 12 41.94480895 12 46 C4.08 46 -3.84 46 -12 46 C-11.30349277 39.73143495 -10.45237111 34.25030275 -8.75 28.28125 C-8.53182617 27.49729858 -8.31365234 26.71334717 -8.08886719 25.90563965 C-7.63156449 24.2678712 -7.1709186 22.63103277 -6.70703125 20.99511719 C-5.994533 18.48070694 -5.29336352 15.96333491 -4.59375 13.4453125 C-4.14648604 11.84877533 -3.69859251 10.25241438 -3.25 8.65625 C-3.03956055 7.90218872 -2.82912109 7.14812744 -2.61230469 6.37121582 C-1.11620847 1.11620847 -1.11620847 1.11620847 0 0 Z " fill="#F5F8F9" transform="translate(648,330)"/>
<path d="M0 0 C2.89958694 2.89958694 3.3574959 6.42814044 4.34765625 10.296875 C4.56441513 11.12326477 4.78117401 11.94965454 5.00450134 12.80108643 C5.46237309 14.5520948 5.91692034 16.30397534 6.3684082 18.05664062 C7.05663168 20.72722852 7.75491412 23.39502064 8.45507812 26.0625 C8.8990352 27.76546929 9.34241322 29.46858967 9.78515625 31.171875 C9.99245865 31.96583679 10.19976105 32.75979858 10.41334534 33.57781982 C10.60702194 34.33169983 10.80069855 35.08557983 11.00024414 35.86230469 C11.16964005 36.51801453 11.33903595 37.17372437 11.51356506 37.8493042 C12.12280761 40.54297461 12.54597783 43.27586699 13 46 C4.75 46 -3.5 46 -12 46 C-10.71889458 39.59447289 -9.38930955 33.40519721 -7.6171875 27.1484375 C-7.39805695 26.36352936 -7.17892639 25.57862122 -6.95315552 24.76992798 C-6.26387254 22.30397434 -5.56953904 19.83947778 -4.875 17.375 C-4.40200626 15.68629241 -3.92934721 13.99749103 -3.45703125 12.30859375 C-2.30854464 8.2046374 -1.1555316 4.10197803 0 0 Z " fill="#F6F8F9" transform="translate(1030,330)"/>
<path d="M0 0 C3.73127562 1.69603437 5.79482697 3.58259097 8 7 C9.68858717 13.38029456 9.25091733 18.31089468 6 24 C3.34260568 27.3217429 0.91217116 27.89673534 -3.3125 28.375 C-8.25480563 27.87239265 -9.56012162 26.51987555 -13 23 C-15.568668 18.75383452 -15.53855663 14.8385947 -15 10 C-12.30583974 2.48471086 -8.09091081 -1.01136385 0 0 Z " fill="#2D2B2B" transform="translate(656,503)"/>
<path d="M0 0 C2.875 1.5 2.875 1.5 5 3 C5.515625 2.505 6.03125 2.01 6.5625 1.5 C9.96381375 -0.59311615 12.07072743 -0.55147685 16 0 C18.703125 1.82421875 18.703125 1.82421875 21 5 C21.61094696 8.78989143 21.47161378 12.48642549 21.3125 16.3125 C21.28994141 17.33923828 21.26738281 18.36597656 21.24414062 19.42382812 C21.18537575 21.9507179 21.10327849 24.47460255 21 27 C19.35 27 17.7 27 16 27 C15.67 20.07 15.34 13.14 15 6 C12.69 6 10.38 6 8 6 C6.41596476 7.58403524 6.78025065 9.2771638 6.68359375 11.47265625 C6.64169922 12.37177734 6.59980469 13.27089844 6.55664062 14.19726562 C6.51732422 15.14279297 6.47800781 16.08832031 6.4375 17.0625 C6.39431641 18.01189453 6.35113281 18.96128906 6.30664062 19.93945312 C6.20020724 22.29281353 6.09818992 24.64628354 6 27 C4.35 27 2.7 27 1 27 C0.97494385 26.43490723 0.9498877 25.86981445 0.92407227 25.28759766 C0.80820044 22.73316258 0.68543463 20.1791045 0.5625 17.625 C0.52318359 16.73554687 0.48386719 15.84609375 0.44335938 14.9296875 C0.38051758 13.65351562 0.38051758 13.65351562 0.31640625 12.3515625 C0.27974854 11.56604004 0.24309082 10.78051758 0.20532227 9.97119141 C0.109109 7.92476504 0.109109 7.92476504 -1 6 C-3.91634129 5.7497843 -3.91634129 5.7497843 -7 6 C-9.0140956 9.0211434 -9.26836596 9.80660017 -9.4140625 13.23046875 C-9.45273437 14.03291016 -9.49140625 14.83535156 -9.53125 15.66210938 C-9.5621875 16.49548828 -9.593125 17.32886719 -9.625 18.1875 C-9.66367187 19.03248047 -9.70234375 19.87746094 -9.7421875 20.74804688 C-9.83636279 22.83167524 -9.91926675 24.91580753 -10 27 C-11.65 27 -13.3 27 -15 27 C-15 18.42 -15 9.84 -15 1 C-12.66666667 1 -10.33333333 1 -8 1 C-5.17998673 -0.41000664 -3.12992745 -0.24548451 0 0 Z " fill="#2A2728" transform="translate(690,503)"/>
<path d="M0 0 C3.5386994 1.65139305 4.81070153 2.71605229 7 6 C7.2610788 9.02329256 7.08815181 11.95876242 7 15 C1.72 15 -3.56 15 -9 15 C-7.67082039 20.47825081 -7.67082039 20.47825081 -6 22 C-4.14712498 22.07226502 -2.29166122 22.0838122 -0.4375 22.0625 C0.57441406 22.05347656 1.58632813 22.04445313 2.62890625 22.03515625 C3.41136719 22.02355469 4.19382812 22.01195312 5 22 C5.33 23.32 5.66 24.64 6 26 C1.69964598 28.15017701 -2.27561147 28.75705212 -7 28 C-11.73922163 25.3670991 -13.38770849 22.09144687 -15 17 C-15.68381456 12.68863258 -15.32616103 9.61737623 -13.25 5.6875 C-9.03857163 0.65718278 -6.75111144 -0.71064331 0 0 Z " fill="#2B2929" transform="translate(839,503)"/>
<path d="M0 0 C2.78901573 1.23956255 4.44350587 2.28450754 6.3125 4.6875 C7 7 7 7 7 15 C1.72 15 -3.56 15 -9 15 C-8.01 17.31 -7.02 19.62 -6 22 C-2.37 22 1.26 22 5 22 C5.33 23.32 5.66 24.64 6 26 C1.68434778 28.43121584 -2.1299147 28.84257531 -7 28 C-10.57236674 26.0729972 -12.69560702 23.91317895 -14 20 C-15.01913064 9.09530217 -15.01913064 9.09530217 -12.953125 4.84765625 C-8.9982462 0.0901697 -6.00642293 -0.40721511 0 0 Z " fill="#292727" transform="translate(736,503)"/>
<path d="M0 0 C0.86625 -0.00257813 1.7325 -0.00515625 2.625 -0.0078125 C5 0.125 5 0.125 8 1.125 C7.67 2.775 7.34 4.425 7 6.125 C6.18015625 6.07859375 5.3603125 6.0321875 4.515625 5.984375 C3.43796875 5.94828125 2.3603125 5.9121875 1.25 5.875 C0.18265625 5.82859375 -0.8846875 5.7821875 -1.984375 5.734375 C-5.67433406 6.21234897 -6.72626726 7.25627178 -9 10.125 C-10.46230215 13.04960429 -10.20908727 15.68152824 -10.25 18.9375 C-10.27578125 20.16082031 -10.3015625 21.38414062 -10.328125 22.64453125 C-9.97873546 26.35055603 -9.23569119 28.18929871 -7 31.125 C-4.23547967 32.50726016 -1.9538637 32.22025387 1.125 32.1875 C2.22070312 32.17847656 3.31640625 32.16945313 4.4453125 32.16015625 C5.28835938 32.14855469 6.13140625 32.13695312 7 32.125 C7.33 33.775 7.66 35.425 8 37.125 C2.1991439 39.0586187 -3.8981746 39.11859019 -9.4375 36.5 C-13.71748881 32.53318111 -16.70374794 28.40319901 -17.23828125 22.48828125 C-17.40111226 15.79506955 -17.09303339 10.60438341 -13 5.125 C-8.83803937 1.16606184 -5.67347429 -0.01688534 0 0 Z " fill="#2E2C2C" transform="translate(807,492.875)"/>
<path d="M0 0 C0.86625 -0.00257813 1.7325 -0.00515625 2.625 -0.0078125 C5 0.125 5 0.125 8 1.125 C7.67 2.775 7.34 4.425 7 6.125 C6.18015625 6.07859375 5.3603125 6.0321875 4.515625 5.984375 C3.43796875 5.94828125 2.3603125 5.9121875 1.25 5.875 C0.18265625 5.82859375 -0.8846875 5.7821875 -1.984375 5.734375 C-5.67433406 6.21234897 -6.72626726 7.25627178 -9 10.125 C-10.46230215 13.04960429 -10.20908727 15.68152824 -10.25 18.9375 C-10.27578125 20.16082031 -10.3015625 21.38414062 -10.328125 22.64453125 C-9.97873546 26.35055603 -9.23569119 28.18929871 -7 31.125 C-4.23547967 32.50726016 -1.9538637 32.22025387 1.125 32.1875 C2.22070312 32.17847656 3.31640625 32.16945313 4.4453125 32.16015625 C5.28835938 32.14855469 6.13140625 32.13695312 7 32.125 C7.33 33.445 7.66 34.765 8 36.125 C3.42679191 38.75933646 -0.83940784 38.77823951 -6 38.125 C-10.88478796 35.77306505 -13.36061943 32.81723213 -16 28.125 C-17.96782069 21.88044901 -18.09268348 14.66265241 -15.3125 8.6875 C-11.69863465 2.43371882 -7.11067696 -0.02116273 0 0 Z " fill="#2D2A2B" transform="translate(541,492.875)"/>
<path d="M0 0 C1.98 0 3.96 0 6 0 C7.98 5.61 9.96 11.22 12 17 C13.80238879 13.39522241 14.97159894 10.0946702 16.125 6.25 C16.65480469 4.49429687 16.65480469 4.49429687 17.1953125 2.703125 C17.46085937 1.81109375 17.72640625 0.9190625 18 0 C19.65 0 21.3 0 23 0 C21.55863429 7.40056051 19.27128651 14.26005998 16.625 21.3125 C16.23828125 22.38306641 15.8515625 23.45363281 15.453125 24.55664062 C15.06898437 25.58595703 14.68484375 26.61527344 14.2890625 27.67578125 C13.94568848 28.60302002 13.60231445 29.53025879 13.24853516 30.4855957 C11.8466191 33.30889126 10.43428242 35.00477506 8 37 C4.25 37.75 4.25 37.75 1 38 C0.505 36.515 0.505 36.515 0 35 C0.33 34.34 0.66 33.68 1 33 C1.969375 32.7525 2.93875 32.505 3.9375 32.25 C7.22300147 31.30776419 7.22300147 31.30776419 8.30224609 28.30029297 C9.12551569 24.4063257 8.63374542 22.63441368 7.2265625 18.9453125 C6.6078125 17.28242187 6.6078125 17.28242187 5.9765625 15.5859375 C5.53054688 14.44382812 5.08453125 13.30171875 4.625 12.125 C4.18671875 10.9596875 3.7484375 9.794375 3.296875 8.59375 C2.21426634 5.72248354 1.11497169 2.85882041 0 0 Z " fill="#2B2929" transform="translate(1021,504)"/>
<path d="M0 0 C1.65 0 3.3 0 5 0 C5.02505615 0.56509277 5.0501123 1.13018555 5.07592773 1.71240234 C5.19179956 4.26683742 5.31456537 6.8208955 5.4375 9.375 C5.47681641 10.26445313 5.51613281 11.15390625 5.55664062 12.0703125 C5.59853516 12.92109375 5.64042969 13.771875 5.68359375 14.6484375 C5.72025146 15.43395996 5.75690918 16.21948242 5.79467773 17.02880859 C5.890891 19.07523496 5.890891 19.07523496 7 21 C9.64 21 12.28 21 15 21 C15.33 14.07 15.66 7.14 16 0 C17.65 0 19.3 0 21 0 C21 8.58 21 17.16 21 26 C19.68 26 18.36 26 17 26 C16.67 25.34 16.34 24.68 16 24 C15.484375 24.495 14.96875 24.99 14.4375 25.5 C11.0761612 27.56851618 8.88040089 27.48505011 5 27 C2.09282927 24.78136971 1.16018357 23.48055071 0 20 C-0.08106686 18.44578271 -0.10756898 16.88832973 -0.09765625 15.33203125 C-0.09443359 14.43935547 -0.09121094 13.54667969 -0.08789062 12.62695312 C-0.07951172 11.69818359 -0.07113281 10.76941406 -0.0625 9.8125 C-0.05798828 8.87212891 -0.05347656 7.93175781 -0.04882812 6.96289062 C-0.03704626 4.64186288 -0.02059558 2.32096356 0 0 Z " fill="#312F2F" transform="translate(559,504)"/>
<path d="M0 0 C2.69990662 1.79993774 4.5418865 3.083773 6 6 C6.08400529 7.59447464 6.10727467 9.19240545 6.09765625 10.7890625 C6.09443359 11.73007812 6.09121094 12.67109375 6.08789062 13.640625 C6.07951172 14.62546875 6.07113281 15.6103125 6.0625 16.625 C6.05798828 17.61757813 6.05347656 18.61015625 6.04882812 19.6328125 C6.03702145 22.0886016 6.020554 24.54427104 6 27 C4.35 27 2.7 27 1 27 C0.97494385 26.43490723 0.9498877 25.86981445 0.92407227 25.28759766 C0.80820044 22.73316258 0.68543463 20.1791045 0.5625 17.625 C0.52318359 16.73554687 0.48386719 15.84609375 0.44335938 14.9296875 C0.38051758 13.65351562 0.38051758 13.65351562 0.31640625 12.3515625 C0.27974854 11.56604004 0.24309082 10.78051758 0.20532227 9.97119141 C0.109109 7.92476504 0.109109 7.92476504 -1 6 C-3.31 6 -5.62 6 -8 6 C-9.14654482 8.29308963 -9.19729117 9.79909656 -9.31640625 12.3515625 C-9.35830078 13.20234375 -9.40019531 14.053125 -9.44335938 14.9296875 C-9.48267578 15.81914063 -9.52199219 16.70859375 -9.5625 17.625 C-9.62727539 18.97078125 -9.62727539 18.97078125 -9.69335938 20.34375 C-9.79956861 22.56234283 -9.90161194 24.7810488 -10 27 C-11.65 27 -13.3 27 -15 27 C-15 18.42 -15 9.84 -15 1 C-13.68 1 -12.36 1 -11 1 C-10.67 1.66 -10.34 2.32 -10 3 C-9.46375 2.505 -8.9275 2.01 -8.375 1.5 C-5.28147204 -0.45380713 -3.60630834 -0.51518691 0 0 Z " fill="#2A2728" transform="translate(872,503)"/>
<path d="M0 0 C0.99 0.33 1.98 0.66 3 1 C3 2.32 3 3.64 3 5 C0.03 5 -2.94 5 -6 5 C-6.33 6.65 -6.66 8.3 -7 10 C-6.37351562 10.26554688 -5.74703125 10.53109375 -5.1015625 10.8046875 C-3.87566406 11.33449219 -3.87566406 11.33449219 -2.625 11.875 C-1.81289063 12.22304688 -1.00078125 12.57109375 -0.1640625 12.9296875 C2 14 2 14 4 16 C4.56833559 23.16102842 4.56833559 23.16102842 2.6875 25.9375 C-1.66815265 28.67994797 -6.522634 28.50817764 -11.4375 27.5 C-11.953125 27.335 -12.46875 27.17 -13 27 C-13 25.35 -13 23.7 -13 22 C-9.37 22 -5.74 22 -2 22 C-2 20.68 -2 19.36 -2 18 C-2.71027344 17.65066406 -3.42054688 17.30132813 -4.15234375 16.94140625 C-5.07144531 16.48636719 -5.99054687 16.03132812 -6.9375 15.5625 C-7.85402344 15.11003906 -8.77054688 14.65757812 -9.71484375 14.19140625 C-12 13 -12 13 -13 12 C-13.70072993 4.87591241 -13.70072993 4.87591241 -11 1.5 C-6.95220076 -0.52389962 -4.50429853 -0.36324988 0 0 Z " fill="#2E2C2C" transform="translate(604,503)"/>
<path d="M0 0 C1.65 0 3.3 0 5 0 C5 2.31 5 4.62 5 7 C7.31 7 9.62 7 12 7 C12 8.32 12 9.64 12 11 C9.69 11 7.38 11 5 11 C5.33 16.61 5.66 22.22 6 28 C8.31 28.66 10.62 29.32 13 30 C13 30.99 13 31.98 13 33 C9.89079391 34.55460305 6.36916972 34.72720693 3 34 C0.77295417 32.19739116 0.08001767 30.72875945 -0.23168945 27.88989258 C-0.2959059 25.33632951 -0.26104253 22.8032458 -0.1875 20.25 C-0.16719727 18.91775391 -0.16719727 18.91775391 -0.14648438 17.55859375 C-0.11121309 15.37177422 -0.06192752 13.18620034 0 11 C-1.32 11 -2.64 11 -4 11 C-4 9.68 -4 8.36 -4 7 C-2.68 7 -1.36 7 0 7 C0 4.69 0 2.38 0 0 Z " fill="#272424" transform="translate(891,497)"/>
<path d="M0 0 C1.32 0 2.64 0 4 0 C4 2.31 4 4.62 4 7 C6.64 7 9.28 7 12 7 C12 8.32 12 9.64 12 11 C9.36 11 6.72 11 4 11 C4.33 16.61 4.66 22.22 5 28 C7.31 28.33 9.62 28.66 12 29 C11.67 30.65 11.34 32.3 11 34 C9.14375 34.1546875 9.14375 34.1546875 7.25 34.3125 C6.55390625 34.37050781 5.8578125 34.42851563 5.140625 34.48828125 C3 34 3 34 0.75 32.0625 C-1.66085687 27.84350048 -1.44546699 24.45012841 -1.25 19.6875 C-1.23195313 18.85154297 -1.21390625 18.01558594 -1.1953125 17.15429688 C-1.14841126 15.10236772 -1.07667411 13.05103244 -1 11 C-2.32 11 -3.64 11 -5 11 C-5 9.68 -5 8.36 -5 7 C-3.35 7 -1.7 7 0 7 C0 4.69 0 2.38 0 0 Z " fill="#2D2B2B" transform="translate(621,497)"/>
<path d="M0 0 C0.77601563 0.00644531 1.55203125 0.01289063 2.3515625 0.01953125 C4.375 0.1875 4.375 0.1875 6.375 1.1875 C6.045 2.5075 5.715 3.8275 5.375 5.1875 C4.1375 5.105 2.9 5.0225 1.625 4.9375 C-1.29747559 4.96859017 -2.50289297 5.12034113 -5.125 6.5625 C-7.41676264 10.57308462 -7.2737967 14.66855552 -6.625 19.1875 C-4.98721601 22.3992961 -4.98721601 22.3992961 -2.2421875 22.69921875 C-0.88480469 22.78623047 -0.88480469 22.78623047 0.5 22.875 C1.86511719 22.97361328 1.86511719 22.97361328 3.2578125 23.07421875 C3.95648437 23.11160156 4.65515625 23.14898438 5.375 23.1875 C5.375 24.5075 5.375 25.8275 5.375 27.1875 C1.90021979 28.92489011 -1.83431136 28.78430392 -5.625 28.1875 C-9.27688854 25.31260902 -12.37120364 22.23262646 -12.9609375 17.48046875 C-13.09396552 6.90474138 -13.09396552 6.90474138 -8.625 2.1875 C-5.65820655 0.36611415 -3.46176124 -0.06367788 0 0 Z " fill="#2F2C2D" transform="translate(965.625,502.8125)"/>
<path d="M0 0 C1.32 0 2.64 0 4 0 C4 2.31 4 4.62 4 7 C6.64 7 9.28 7 12 7 C12 8.32 12 9.64 12 11 C9.36 11 6.72 11 4 11 C4.33 16.61 4.66 22.22 5 28 C7.31 28.33 9.62 28.66 12 29 C12 30.32 12 31.64 12 33 C10.56589632 33.24954005 9.12739928 33.47392642 7.6875 33.6875 C6.88699219 33.81511719 6.08648438 33.94273437 5.26171875 34.07421875 C3 34 3 34 1.37695312 32.78710938 C-0.39617597 30.48581416 -0.34801916 29.21300254 -0.29296875 26.33203125 C-0.28330078 25.43935547 -0.27363281 24.54667969 -0.26367188 23.62695312 C-0.23853516 22.69818359 -0.21339844 21.76941406 -0.1875 20.8125 C-0.17396484 19.87212891 -0.16042969 18.93175781 -0.14648438 17.96289062 C-0.11113096 15.64134962 -0.06178674 13.32096347 0 11 C-1.65 11 -3.3 11 -5 11 C-5 9.68 -5 8.36 -5 7 C-3.35 7 -1.7 7 0 7 C0 4.69 0 2.38 0 0 Z " fill="#292626" transform="translate(1002,497)"/>
<path d="M0 0 C1.93084565 1.58605179 2.88290172 2.76580344 4 5 C4.25521859 9.5088618 4.13407758 12.96896457 2 17 C-0.95664519 18.4783226 -3.74229737 18.06032783 -7 18 C-9.65790964 13.45940437 -10.57373919 10.25927594 -10 5 C-7.46485217 -0.30076365 -5.72640588 -1.67602123 0 0 Z " fill="#EFEFEF" transform="translate(656,508)"/>
<path d="M0 0 C0 1.65 0 3.3 0 5 C-1.134375 5.309375 -2.26875 5.61875 -3.4375 5.9375 C-6.78775099 6.62924531 -6.78775099 6.62924531 -8 8 C-8.15655027 9.48638992 -8.25066943 10.97949127 -8.31640625 12.47265625 C-8.35830078 13.37177734 -8.40019531 14.27089844 -8.44335938 15.19726562 C-8.50233398 16.61555664 -8.50233398 16.61555664 -8.5625 18.0625 C-8.62727539 19.4865918 -8.62727539 19.4865918 -8.69335938 20.93945312 C-8.79979276 23.29281353 -8.90181008 25.64628354 -9 28 C-10.66611905 28.042721 -12.33382885 28.04063832 -14 28 C-15 27 -15 27 -15.11352539 24.49975586 C-15.10828857 23.41573486 -15.10305176 22.33171387 -15.09765625 21.21484375 C-15.09443359 20.04501953 -15.09121094 18.87519531 -15.08789062 17.66992188 C-15.07951172 16.43822266 -15.07113281 15.20652344 -15.0625 13.9375 C-15.05798828 12.70193359 -15.05347656 11.46636719 -15.04882812 10.19335938 C-15.03699608 7.12885883 -15.02051173 4.06445279 -15 1 C-13.35 1 -11.7 1 -10 1 C-9.67 1.66 -9.34 2.32 -9 3 C-8.62875 2.505 -8.2575 2.01 -7.875 1.5 C-5.25305607 -0.59755514 -3.26157528 -0.21743835 0 0 Z " fill="#3C3A3A" transform="translate(928,503)"/>
<path d="M0 0 C0 1.65 0 3.3 0 5 C-1.134375 5.309375 -2.26875 5.61875 -3.4375 5.9375 C-6.78775099 6.62924531 -6.78775099 6.62924531 -8 8 C-8.15620555 9.41327947 -8.25056173 10.8335459 -8.31640625 12.25390625 C-8.35830078 13.10791016 -8.40019531 13.96191406 -8.44335938 14.84179688 C-8.50233398 16.18854492 -8.50233398 16.18854492 -8.5625 17.5625 C-8.60568359 18.46419922 -8.64886719 19.36589844 -8.69335938 20.29492188 C-8.79978142 22.52978485 -8.90179988 24.76476308 -9 27 C-10.65 27 -12.3 27 -14 27 C-14 18.42 -14 9.84 -14 1 C-12.68 1 -11.36 1 -10 1 C-9.67 1.66 -9.34 2.32 -9 3 C-8.443125 2.505 -7.88625 2.01 -7.3125 1.5 C-4.61837017 -0.24754367 -3.14624993 -0.26218749 0 0 Z " fill="#292727" transform="translate(768,503)"/>
<path d="M0 0 C1.65 0 3.3 0 5 0 C5 8.58 5 17.16 5 26 C3.68 26 2.36 26 1 26 C0.67 25.34 0.34 24.68 0 24 C-1.98 24.99 -1.98 24.99 -4 26 C-3.690625 25.401875 -3.38125 24.80375 -3.0625 24.1875 C-1.46653189 20.90168331 -0.8530977 18.1587939 -0.68359375 14.55078125 C-0.64169922 13.70322266 -0.59980469 12.85566406 -0.55664062 11.98242188 C-0.51732422 11.10134766 -0.47800781 10.22027344 -0.4375 9.3125 C-0.39431641 8.41982422 -0.35113281 7.52714844 -0.30664062 6.60742188 C-0.20064647 4.40509892 -0.09857949 2.20266527 0 0 Z " fill="#252324" transform="translate(575,504)"/>
<path d="M0 0 C1.65 0 3.3 0 5 0 C5 8.58 5 17.16 5 26 C3.35 26 1.7 26 0 26 C0 17.42 0 8.84 0 0 Z " fill="#232121" transform="translate(983,504)"/>
<path d="M0 0 C1.65 0 3.3 0 5 0 C5 8.58 5 17.16 5 26 C3.35 26 1.7 26 0 26 C0 17.42 0 8.84 0 0 Z " fill="#222020" transform="translate(937,504)"/>
<path d="M0 0 C2.5625 0.3125 2.5625 0.3125 4.375 1.5625 C5.5625 3.3125 5.5625 3.3125 5.5625 7.3125 C1.9325 7.3125 -1.6975 7.3125 -5.4375 7.3125 C-4.07960526 0.52302632 -4.07960526 0.52302632 0 0 Z " fill="#F2F2F2" transform="translate(835.4375,506.6875)"/>
<path d="M0 0 C0.928125 0.20625 1.85625 0.4125 2.8125 0.625 C3.1425 2.605 3.4725 4.585 3.8125 6.625 C0.1825 6.625 -3.4475 6.625 -7.1875 6.625 C-6.8575 4.975 -6.5275 3.325 -6.1875 1.625 C-3.1875 -0.375 -3.1875 -0.375 0 0 Z " fill="#F1F1F1" transform="translate(734.1875,507.375)"/>
<path d="M0 0 C11.22 0 22.44 0 34 0 C34 0.33 34 0.66 34 1 C33.08186523 1.00410889 32.16373047 1.00821777 31.21777344 1.01245117 C27.80276072 1.03946184 24.3895399 1.08857183 20.97509766 1.15258789 C19.49897288 1.17574851 18.02268331 1.19015915 16.54638672 1.19555664 C14.42050737 1.20486184 12.29721232 1.2458746 10.171875 1.29296875 C8.2552002 1.31653442 8.2552002 1.31653442 6.29980469 1.34057617 C2.81181868 1.71119689 2.81181868 1.71119689 0.55175781 4.54418945 C0.03967773 5.35460693 -0.47240234 6.16502441 -1 7 C-0.67 4.69 -0.34 2.38 0 0 Z " fill="#286572" transform="translate(1014,299)"/>
<path d="M0 0 C1.65 0 3.3 0 5 0 C4.34 2.97 3.68 5.94 3 9 C1.35 9 -0.3 9 -2 9 C-1.34 6.03 -0.68 3.06 0 0 Z " fill="#312F2F" transform="translate(1039,504)"/>
<path d="M0 0 C2.125 0.375 2.125 0.375 4 1 C4.38218767 2.65614657 4.71395102 4.32457024 5 6 C4 7 4 7 1.4375 7.0625 C0.2309375 7.0315625 0.2309375 7.0315625 -1 7 C-1.625 4.625 -1.625 4.625 -2 2 C-1.34 1.34 -0.68 0.68 0 0 Z " fill="#323031" transform="translate(984,492)"/>
<path d="M0 0 C0 1.65 0 3.3 0 5 C-2.31 5.33 -4.62 5.66 -7 6 C-7.66 5.01 -8.32 4.02 -9 3 C-6.38997624 -0.48003168 -4.1689578 -0.27793052 0 0 Z " fill="#302D2E" transform="translate(928,503)"/>
<path d="M0 0 C0 0.99 0 1.98 0 3 C-3.06246747 4.78409802 -5.22079273 5.22880021 -8.75 5.125 C-9.54921875 5.10695313 -10.3484375 5.08890625 -11.171875 5.0703125 C-11.77515625 5.04710937 -12.3784375 5.02390625 -13 5 C-13 4.67 -13 4.34 -13 4 C-10.69 4 -8.38 4 -6 4 C-6 3.01 -6 2.02 -6 1 C-7.32 0.67 -8.64 0.34 -10 0 C-6.33694766 -0.74926071 -3.57644848 -1.2380014 0 0 Z " fill="#474546" transform="translate(742,526)"/>
<path d="M0 0 C0 0.99 0 1.98 0 3 C-4.49656104 5.24828052 -8.07872966 5.16682272 -13 5 C-13 4.67 -13 4.34 -13 4 C-10.69 4 -8.38 4 -6 4 C-6 3.01 -6 2.02 -6 1 C-7.32 0.67 -8.64 0.34 -10 0 C-6.33694766 -0.74926071 -3.57644848 -1.2380014 0 0 Z " fill="#504E4F" transform="translate(845,526)"/>
<path d="M0 0 C2.0625 0.4375 2.0625 0.4375 4 1 C4.33 2.65 4.66 4.3 5 6 C3.34385343 6.38218767 1.67542976 6.71395102 0 7 C-1 6 -1 6 -1.125 3.5 C-1 1 -1 1 0 0 Z " fill="#282626" transform="translate(938,492)"/>
<path d="M0 0 C0.99 0.33 1.98 0.66 3 1 C2.2733313 1.61161987 2.2733313 1.61161987 1.53198242 2.2355957 C-0.33110371 4.38133649 -0.41229073 5.42659846 -0.51171875 8.23046875 C-0.54716797 9.03291016 -0.58261719 9.83535156 -0.61914062 10.66210938 C-0.64169922 11.49548828 -0.66425781 12.32886719 -0.6875 13.1875 C-0.72166016 14.03248047 -0.75582031 14.87746094 -0.79101562 15.74804688 C-0.87341471 17.83156649 -0.93838645 19.91576216 -1 22 C-1.33 22 -1.66 22 -2 22 C-2.05807043 18.89591193 -2.09361914 15.7919636 -2.125 12.6875 C-2.14175781 11.80642578 -2.15851562 10.92535156 -2.17578125 10.01757812 C-2.18222656 9.17001953 -2.18867187 8.32246094 -2.1953125 7.44921875 C-2.20578613 6.66893311 -2.21625977 5.88864746 -2.22705078 5.0847168 C-2 3 -2 3 0 0 Z " fill="#EDEDED" transform="translate(864,508)"/>
<path d="M0 0 C1.98 0 3.96 0 6 0 C6.33 1.32 6.66 2.64 7 4 C3.78548731 5.60725635 0.56387464 5.05748185 -3 5 C-3 4.67 -3 4.34 -3 4 C-1.02 4 0.96 4 3 4 C3 3.34 3 2.68 3 2 C2.01 1.34 1.02 0.68 0 0 Z " fill="#4F4D4E" transform="translate(897,526)"/>
<path d="M0 0 C1.98 0.495 1.98 0.495 4 1 C4 1.99 4 2.98 4 4 C2.35 4.33 0.7 4.66 -1 5 C-0.67 3.35 -0.34 1.7 0 0 Z " fill="#3B393A" transform="translate(841,525)"/>
<path d="M0 0 C2.64 0 5.28 0 8 0 C8 0.33 8 0.66 8 1 C7.071875 1.2475 6.14375 1.495 5.1875 1.75 C1.83541675 3.06454245 0.8122197 3.97963384 -1 7 C-0.67 4.69 -0.34 2.38 0 0 Z " fill="#3D7480" transform="translate(1014,299)"/>
</svg>
